<svg xmlns="http://www.w3.org/2000/svg" width="420" height="180" viewBox="0 0 420 180" role="img" aria-labelledby="title desc">
<title id="title">Layout widget 3 colonne</title>
<desc id="desc">Anteprima di una griglia responsive con 3 colonne desktop.</desc>
<rect width="420" height="180" rx="16" fill="#f8fafc"/>
<text x="18" y="28" font-family="Arial, sans-serif" font-size="16" font-weight="700" fill="#111827">3 colonne · Responsive</text>
<rect x="18.0" y="44" width="120.0" height="96" rx="8" fill="#ffffff" stroke="#2271b1" stroke-width="2"/><rect x="26.0" y="54" width="104.0" height="28" rx="5" fill="#dbeafe"/><rect x="26.0" y="90" width="104.0" height="6" rx="3" fill="#111827"/><rect x="26.0" y="104" width="96.0" height="5" rx="2.5" fill="#6b7280"/><rect x="26.0" y="122" width="92.0" height="10" rx="5" fill="#111827"/><rect x="150.0" y="44" width="120.0" height="96" rx="8" fill="#ffffff" stroke="#2271b1" stroke-width="2"/><rect x="158.0" y="54" width="104.0" height="28" rx="5" fill="#dbeafe"/><rect x="158.0" y="90" width="104.0" height="6" rx="3" fill="#111827"/><rect x="158.0" y="104" width="96.0" height="5" rx="2.5" fill="#6b7280"/><rect x="158.0" y="122" width="92.0" height="10" rx="5" fill="#111827"/><rect x="282.0" y="44" width="120.0" height="96" rx="8" fill="#ffffff" stroke="#2271b1" stroke-width="2"/><rect x="290.0" y="54" width="104.0" height="28" rx="5" fill="#dbeafe"/><rect x="290.0" y="90" width="104.0" height="6" rx="3" fill="#111827"/><rect x="290.0" y="104" width="96.0" height="5" rx="2.5" fill="#6b7280"/><rect x="290.0" y="122" width="92.0" height="10" rx="5" fill="#111827"/>
<path d="M18 158h384" stroke="#cbd5e1" stroke-width="2" stroke-linecap="round"/>
<text x="18" y="172" font-family="Arial, sans-serif" font-size="10" fill="#475569">Mobile max 1 colonna</text>
</svg>
